<?xml version="1.0" standalone="no"?>
<!DOCTYPE svg PUBLIC "-//W3C//DTD SVG 20010904//EN"
 "http://www.w3.org/TR/2001/REC-SVG-20010904/DTD/svg10.dtd">
<svg version="1.0" xmlns="http://www.w3.org/2000/svg"
 width="860.000000pt" height="871.000000pt" viewBox="0 0 860.000000 871.000000"
 preserveAspectRatio="xMidYMid meet">

<g transform="translate(0.000000,871.000000) scale(0.100000,-0.100000)"
fill="#000000" stroke="none">
<path d="M5101 8211 c53 -135 105 -326 136 -501 31 -177 43 -495 24 -661 -28
-237 -87 -440 -191 -645 -120 -238 -250 -401 -503 -626 -240 -215 -452 -450
-648 -718 -73 -100 -122 -174 -227 -344 l-25 -40 -37 112 c-124 369 -385 717
-773 1028 -125 100 -407 297 -415 290 -2 -2 15 -39 36 -83 144 -285 259 -636
314 -958 18 -108 22 -168 22 -355 0 -196 -3 -239 -23 -330 -42 -198 -100 -337
-201 -489 -64 -95 -98 -133 -86 -95 42 134 58 399 33 559 -53 334 -247 615
-543 788 -6 4 0 -21 13 -54 66 -164 99 -384 90 -599 -12 -264 -66 -495 -191
-810 -86 -215 -97 -248 -131 -390 -143 -601 -5 -1221 380 -1705 79 -99 243
-263 360 -360 138 -113 252 -191 489 -332 4 -3 -11 19 -36 49 -107 131 -191
298 -235 466 -19 75 -26 131 -30 248 -8 233 13 339 132 644 102 262 121 551
50 762 -13 40 -23 73 -22 75 2 1 28 -14 57 -34 201 -135 312 -368 296 -618 -4
-49 -11 -108 -16 -130 l-9 -40 25 30 c37 45 110 201 130 280 26 99 26 385 0
505 -38 182 -93 345 -170 514 -20 43 -35 80 -33 82 2 2 51 -28 108 -67 322
-221 529 -465 625 -738 l22 -64 39 63 c124 202 271 378 486 583 94 89 197 198
229 241 241 324 290 775 132 1229 -19 54 -33 101 -31 103 8 9 214 -203 279
-286 176 -227 296 -483 368 -785 67 -278 83 -480 82 -1020 l0 -440 78 159
c116 234 179 437 180 585 0 30 2 52 5 49 9 -8 33 -159 52 -317 24 -205 24
-721 0 -906 -66 -493 -226 -925 -449 -1207 -16 -21 -27 -38 -23 -38 3 0 45 26
93 59 787 531 1272 1361 1411 2416 34 257 44 468 38 775 -9 444 -58 830 -154
1230 l-28 115 -7 -110 c-16 -279 -110 -562 -322 -980 l-101 -200 -6 735 c-6
740 -11 854 -50 1170 -113 918 -456 1616 -1060 2161 l-77 69 39 -99z"/>
</g>
</svg>
